<svg version="1.0" xmlns="http://www.w3.org/2000/svg" width="682.667" fill="#fff" height="682.667" viewBox="0 0 512 512"><path d="M233.1 1.1c-79 7-150.8 51.3-194.5 119.9-6.3 9.9-18.5 34.9-23.1 47.5-5.1 13.8-10 33.6-12.6 50.6-3.2 20.5-3.2 53.3 0 73.8 4.3 28.3 11.1 49.9 23.6 75.6 12.2 25 26.1 44.8 45.9 65.2 59.7 61.8 145.7 89.4 229.7 73.9 84.7-15.7 156.4-73.2 189.3-151.9 13.8-32.9 20-63.7 20-99.7s-6.2-66.8-20-99.7C448.9 54.7 343.4-8.7 233.1 1.1m45 27.9c41.6 4.1 81.7 19.8 115.8 45.3 12.3 9.2 34.6 31.5 43.8 43.8 51.4 68.7 60.8 159.4 24.6 235.1-12.3 25.5-25.2 43.7-45.3 63.8-26.1 26.2-54.7 43.9-89 55.3-108.1 36-225.7-13.1-276.5-115.5C7.5 268 26.2 161 98 91.6c36.1-34.8 84.6-57.4 134-62.5 12.2-1.2 34.1-1.3 46.1-.1"/><path d="M248.5 78c-1.6 1.1-3.8 3.4-4.7 5.2-1.7 3-1.8 9.3-1.8 89.3 0 79.9.1 86.2 1.8 89.4.9 1.9 3 4.4 4.5 5.5 2.8 2.1 3.8 2.1 72 2.4 67.7.2 69.3.2 72.5-1.8 9.4-5.8 9.4-18.3 0-24-3.2-1.9-5.2-2-63-2H270v-77.2c0-74.8-.1-77.3-2-81.3-1.1-2.2-3.3-4.8-4.9-5.8-3.9-2.3-10.8-2.2-14.6.3"/></svg>