<svg width="25" height="28" viewBox="0 0 25 28" fill="none" xmlns="http://www.w3.org/2000/svg">
<path d="M11.444 0.0875276C11.3571 0.131291 11.2586 0.22429 11.2355 0.289935C11.2065 0.355581 10.8241 2.34683 10.3838 4.71555C9.94347 7.08974 9.56687 9.02629 9.54949 9.02629C9.53211 9.02629 8.97591 8.59412 8.30384 8.06348C6.83223 6.89827 6.82644 6.8928 6.59469 6.8928C6.37453 6.8928 6.07325 7.16085 6.07325 7.35232C6.07904 7.4125 6.16595 8.17836 6.27024 9.05364C6.37452 9.92345 6.45564 10.6455 6.44984 10.6565C6.43826 10.6674 5.15784 10.1094 3.59933 9.41469C2.04661 8.72541 0.702459 8.14007 0.621347 8.12366C0.291104 8.04707 -0.0739013 8.40265 0.0130047 8.71994C0.0419734 8.83482 0.928415 9.82498 4.49156 13.7364C4.56109 13.813 4.41624 13.8895 3.05472 14.4475C2.22621 14.7922 1.48461 15.1313 1.4035 15.2025C1.21231 15.383 1.21231 15.6893 1.4035 15.8699C1.48461 15.941 2.26677 16.3184 3.14162 16.7068L4.74069 17.4125L4.34672 17.8556C4.13235 18.0963 3.62829 18.6762 3.22273 19.1357C2.81138 19.6007 2.46375 20.0384 2.44637 20.1149C2.39423 20.3064 2.48114 20.5088 2.66653 20.6401C2.82876 20.755 2.82876 20.755 4.51474 20.6565C5.44173 20.6018 6.2123 20.569 6.22389 20.5854C6.23548 20.5963 5.38959 21.9694 4.34092 23.6379C3.29226 25.3119 2.39423 26.7506 2.34209 26.8491C2.19724 27.1117 2.22042 27.336 2.4174 27.522C2.6028 27.6916 2.77662 27.7189 2.99098 27.6095C3.06051 27.5712 4.55529 26.3841 6.31079 24.9727C8.0663 23.5559 9.52052 22.3961 9.5437 22.3852C9.56108 22.3797 9.9145 23.5559 10.3316 25.0056C10.743 26.4498 11.1254 27.7025 11.1775 27.79C11.3629 28.0745 11.8612 28.069 12.064 27.7791C12.1103 27.708 12.4637 26.4607 12.8519 25.0001C13.2459 23.5395 13.5645 22.3414 13.5703 22.336C13.5761 22.325 15.0651 23.5066 16.8844 24.9508C18.6978 26.4005 20.2447 27.604 20.32 27.6314C20.6445 27.7517 21.0211 27.5056 21.0211 27.1719C21.0211 27.0515 20.4591 26.1106 18.9933 23.7802C17.8751 22.0077 16.9713 20.5416 16.9886 20.5307C17.0002 20.5143 17.7824 20.5854 18.7268 20.6839C20.6387 20.8808 20.6735 20.8808 20.8299 20.5307C20.8936 20.3775 20.8936 20.3228 20.8299 20.1751C20.7835 20.0767 20.21 19.4038 19.5553 18.6817C18.9006 17.9596 18.3849 17.3524 18.4023 17.3305C18.4255 17.3141 18.9933 17.0624 19.6654 16.7725C21.444 16.0176 21.5425 15.9683 21.6063 15.848C21.7163 15.6565 21.6816 15.3666 21.5367 15.2353C21.4614 15.1696 20.7546 14.8469 19.9666 14.5241C19.1729 14.2014 18.5298 13.9169 18.5298 13.895C18.5298 13.8731 19.9666 12.3305 21.7221 10.4705C23.4776 8.60506 24.9377 7.02409 24.9724 6.94751C25.0883 6.66304 24.8218 6.29105 24.4973 6.29105C24.2656 6.29105 24.4046 6.21993 20.4765 8.36436C18.5935 9.38734 17.0466 10.2189 17.035 10.2024C17.0234 10.1915 17.4174 9.21228 17.9156 8.02519C18.4139 6.8381 18.8195 5.79324 18.8195 5.70571C18.8195 5.45954 18.5761 5.25166 18.2922 5.25166C18.0837 5.25166 17.9562 5.34466 16.4904 6.52628C15.6213 7.2265 14.6132 8.03613 14.2482 8.33154C13.8832 8.62147 13.5645 8.86217 13.5356 8.86217C13.5124 8.86217 13.4892 8.82935 13.4892 8.79106C13.4892 8.68165 12.2725 0.481402 12.232 0.33917C12.1972 0.191467 11.9017 0 11.7221 0C11.6584 0.00547048 11.5309 0.0437638 11.444 0.0875276ZM12.1219 6.8381C12.3652 8.47924 12.5854 9.91251 12.6202 10.0219C12.6955 10.2736 12.8693 10.3939 13.1474 10.3939C13.3386 10.3939 13.5182 10.2626 15.1636 8.94423C16.1543 8.14554 16.9655 7.5055 16.9655 7.52191C16.9655 7.53285 16.6294 8.34248 16.2181 9.31622C15.3374 11.4059 15.3316 11.4169 15.4301 11.6412C15.5634 11.9366 15.8762 12.0077 16.2586 11.8217C16.3745 11.767 17.6549 11.0722 19.1034 10.29C20.546 9.50222 21.7395 8.86764 21.7453 8.87311C21.7511 8.88406 20.7198 9.98362 19.451 11.3184C18.1822 12.6587 17.1161 13.8239 17.0813 13.9114C17.035 14.0427 17.0466 14.1193 17.1219 14.2725C17.2204 14.453 17.3131 14.5022 18.5298 14.9946L19.8276 15.5307L18.6225 16.0777C17.9562 16.3841 17.3942 16.6303 17.371 16.6303C17.3479 16.6303 17.2436 16.7014 17.1451 16.7889C17.0002 16.9147 16.9655 16.9913 16.9655 17.1609C16.9655 17.3633 17.0408 17.4618 18.0026 18.523C18.5703 19.1521 19.0338 19.6718 19.028 19.6773C19.0222 19.6828 18.3096 19.6117 17.4406 19.5241C16.1196 19.3819 15.8299 19.3655 15.6851 19.4202C15.5055 19.4913 15.3432 19.7211 15.3432 19.9016C15.3432 19.9563 15.6619 20.5033 16.0443 21.1215C16.4324 21.7342 17.1103 22.8119 17.5564 23.5176C17.9968 24.2233 18.3154 24.7649 18.2575 24.7211C18.1995 24.6773 17.2436 23.9169 16.1254 23.0252C13.4545 20.8972 13.4545 20.8972 13.2807 20.8972C13.1995 20.8972 13.0605 20.9355 12.9678 20.9793C12.765 21.0777 12.7592 21.0832 12.0929 23.5613C11.8264 24.5624 11.5947 25.383 11.5773 25.383C11.5599 25.383 11.2876 24.453 10.969 23.3206C10.3316 21.034 10.2911 20.9519 9.90291 20.9519C9.65378 20.9519 9.92029 20.755 6.94231 23.1401C5.90523 23.9662 5.0072 24.6773 4.95506 24.7211C4.89712 24.7649 5.04197 24.4913 5.27951 24.1139C7.92145 19.9016 7.8751 19.9891 7.66073 19.7047C7.49272 19.4804 7.35946 19.4694 5.89944 19.557C5.14046 19.6062 4.43942 19.639 4.34672 19.6281C4.1787 19.6117 4.19029 19.5952 5.12308 18.5504C5.64451 17.965 6.08484 17.4235 6.10222 17.3414C6.14857 17.1499 6.05587 16.9311 5.88785 16.8272C5.81253 16.7834 5.15784 16.4825 4.43362 16.1598C3.70941 15.837 3.13583 15.558 3.159 15.5362C3.18218 15.5143 3.77314 15.2681 4.47418 14.9891C5.16943 14.7101 5.78356 14.4311 5.8415 14.3764C5.98055 14.2342 6.00952 14.0482 5.92841 13.8567C5.88785 13.7747 5.14046 12.9158 4.25981 11.953C3.38496 10.9902 2.67812 10.197 2.68392 10.186C2.6955 10.1751 3.66885 10.6018 4.84498 11.127C6.0269 11.6576 7.05819 12.0898 7.1393 12.0898C7.21462 12.0898 7.35946 12.0241 7.45795 11.9475C7.68391 11.767 7.68391 11.7014 7.48692 10.1149C7.40581 9.45298 7.34787 8.86217 7.35946 8.80747C7.37105 8.72541 7.59121 8.87311 8.41971 9.5241C8.99329 9.97815 9.5437 10.3994 9.6364 10.4541C9.88553 10.6018 10.1057 10.5854 10.2969 10.4048C10.4417 10.2626 10.4823 10.104 11.0559 7.04597C11.3861 5.27901 11.6642 3.84028 11.67 3.84575C11.6758 3.85122 11.8844 5.19695 12.1219 6.8381Z" fill="white"/>
</svg>
