<svg version="1.0" xmlns="http://www.w3.org/2000/svg" width="682.667" height="682.667" viewBox="0 0 512 512"><path d="M237.7 1.6c-1.5.8-3.2 2.5-3.6 3.7-.5 1.2-7.1 37.6-14.7 80.9-7.6 43.4-14.1 78.8-14.4 78.8s-9.9-7.9-21.5-17.6C158.1 126.1 158 126 154 126c-3.8 0-9 4.9-9 8.4.1 1.1 1.6 15.1 3.4 31.1 1.8 15.9 3.2 29.1 3.1 29.3-.2.2-22.3-10-49.2-22.7-26.8-12.6-50-23.3-51.4-23.6-5.7-1.4-12 5.1-10.5 10.9.5 2.1 15.8 20.2 77.3 91.7 1.2 1.4-1.3 2.8-24.8 13-14.3 6.3-27.1 12.5-28.5 13.8-3.3 3.3-3.3 8.9 0 12.2 1.4 1.3 14.9 8.2 30 15.3l27.6 12.9-6.8 8.1c-3.7 4.4-12.4 15-19.4 23.4-7.1 8.5-13.1 16.5-13.4 17.9-.9 3.5.6 7.2 3.8 9.6 2.8 2.1 2.8 2.1 31.9.3 16-1 29.3-1.6 29.5-1.3.2.2-14.4 25.3-32.5 55.8C97 462.7 81.5 489 80.6 490.8c-2.5 4.8-2.1 8.9 1.3 12.3 3.2 3.1 6.2 3.6 9.9 1.6 1.2-.7 27-22.4 57.3-48.2 30.3-25.9 55.4-47.1 55.8-47.3.3-.1 6.4 21.4 13.6 47.9 7.1 26.4 13.7 49.3 14.6 50.9 3.2 5.2 11.8 5.1 15.3-.2.8-1.3 6.9-24.1 13.6-50.8 6.8-26.7 12.3-48.6 12.4-48.7.1-.2 25.8 21.4 57.2 47.8 31.3 26.5 58 48.5 59.3 49 5.6 2.2 12.1-2.3 12.1-8.4 0-2.2-9.7-19.4-35-62-19.3-32.4-34.9-59.2-34.6-59.4.2-.3 13.7 1 30 2.8 33 3.6 33.6 3.6 36.3-2.8 1.1-2.8 1.1-3.8 0-6.5-.8-1.8-10.7-14.1-22-27.3s-20.2-24.3-19.9-24.7c.4-.3 10.2-4.9 21.8-10.2 30.7-13.8 32.4-14.7 33.5-16.9 1.9-3.5 1.3-8.8-1.2-11.2-1.3-1.2-13.5-7.1-27.1-13-13.7-5.9-24.8-11.1-24.8-11.5s24.8-28.6 55.1-62.6c30.3-34.1 55.5-63 56.1-64.4 2-5.2-2.6-12-8.2-12-4 0-1.6-1.3-69.4 37.9-32.5 18.7-59.2 33.9-59.4 33.6-.2-.2 6.6-18.1 15.2-39.8s15.6-40.8 15.6-42.4c0-4.5-4.2-8.3-9.1-8.3-3.6 0-5.8 1.7-31.1 23.3-15 12.8-32.4 27.6-38.7 33-6.3 5.3-11.8 9.7-12.3 9.7-.4 0-.8-.6-.8-1.3 0-2-21-151.9-21.7-154.5-.6-2.7-5.7-6.2-8.8-6.2-1.1.1-3.3.8-4.8 1.6M249.4 125c4.2 30 8 56.2 8.6 58.2 1.3 4.6 4.3 6.8 9.1 6.8 3.3 0 6.4-2.4 34.8-26.5 17.1-14.6 31.1-26.3 31.1-26 0 .2-5.8 15-12.9 32.8-15.2 38.2-15.3 38.4-13.6 42.5 2.3 5.4 7.7 6.7 14.3 3.3 2-1 24.1-13.7 49.1-28 24.9-14.4 45.5-26 45.6-25.9.1.2-17.7 20.3-39.6 44.7-21.9 24.5-40.3 45.8-40.9 47.4-.8 2.4-.6 3.8.7 6.6 1.7 3.3 3.3 4.2 24.3 13.2l22.4 9.8-20.8 10c-11.5 5.6-21.2 10.1-21.6 10.1s-2.2 1.3-3.9 2.9c-2.5 2.3-3.1 3.7-3.1 6.8 0 3.7 1.3 5.5 17.9 24.9 9.8 11.5 17.8 21 17.7 21.1s-12.4-1.2-27.4-2.8c-22.8-2.6-27.8-2.9-30.3-1.9-3.1 1.3-5.9 5.5-5.9 8.8 0 1 5.5 11 12.1 22.3 6.7 11.2 18.4 30.9 26.1 43.8 7.6 12.9 13.1 22.8 12.1 22s-17.5-14.7-36.8-31C272.4 382 272.4 382 269.4 382c-1.4 0-3.8.7-5.4 1.5-3.5 1.8-3.6 1.9-15.1 47.2-4.6 18.3-8.6 33.3-8.9 33.3s-5-17-10.5-37.7c-11-41.8-11.7-43.3-18.4-43.3-4.3 0 .3-3.6-51.1 40-17.9 15.1-33.4 28.1-34.3 28.9-1 .8 1.5-4.2 5.6-11.1 45.6-77 44.8-75.4 41.1-80.6-2.9-4.1-5.2-4.3-30.4-2.7-13.1.9-25.2 1.5-26.8 1.3-2.9-.3-2.7-.6 13.4-19.7 9-10.7 16.6-20.6 16.9-22.1.8-3.5-.8-7.5-3.7-9.4-1.3-.8-12.6-6.3-25.1-12.2s-22.4-11-22-11.4 10.6-4.9 22.7-10c12-5.1 22.6-10.2 23.6-11.2 2.4-2.6 2.9-6 1.5-9.5-.7-1.5-13.6-17.2-28.8-34.8-15.1-17.6-27.3-32.1-27.2-32.3.2-.2 17 7.6 37.3 17.2 20.4 9.7 38.2 17.6 39.6 17.6 1.3 0 3.8-1.2 5.5-2.6 3.9-3.3 3.9-4.5.5-33.5-1.4-12.1-2.4-22.9-2.2-23.9.2-1.5 4 1.2 18.3 13.1 9.9 8.3 19.4 16 21 17q6.45 4.05 11.4-.9c2.5-2.6 3.2-5.5 13.1-61.4 5.7-32.3 10.5-58.6 10.6-58.5s3.7 24.7 7.8 54.7" fill="#fff"/></svg>