<svg version="1.0" xmlns="http://www.w3.org/2000/svg" width="682.667" height="682.667" viewBox="0 0 512 512" fill="#fff"><path d="M103 26.7c-3.6 1.3-4 3.4-4 21.4C99 70 98.2 69 114.6 69h11.1l.6 24.7c.4 13.7 1.4 29.3 2.2 34.8 3.7 24.5 13.8 46.8 28.5 62.8 2.8 3.1 16.5 16 30.5 28.7 28.1 25.6 29.8 27.8 29.7 38.1 0 6.3-2.2 11.4-7.4 17-1.8 2-13.2 12.6-25.3 23.6-26.5 24.1-32.8 30.7-39.4 41.5-13.6 22-19 47.6-19.1 89.5V442h-11.8c-16 0-15.2-1.2-15.2 21.3 0 18.8.3 20 5.3 21.2 1.2.3 71.2.4 155.5.3l153.4-.3 1.9-2.4c1.7-2.1 1.9-4.1 1.9-18.3 0-8.8-.4-16.8-1-17.8-1.5-2.9-6.5-4-17.6-4H388v-21.3c0-36.4-4.6-57-17.4-78.7-7.1-12.1-14-19.5-41.8-44.9-30.5-27.8-32.8-30.6-32.8-40.1 0-8 2.9-11.7 27.9-34.4 36.6-33.3 43.3-40.9 51.6-58.9 8.6-18.7 11.4-34.6 12.2-68.5l.6-25.2h9.7c5.3 0 11.1-.5 12.8-1.1 4.7-1.6 5.4-4.6 5-22.7-.3-13.9-.5-16.4-2.1-17.9-1.7-1.7-9.5-1.8-155.5-2-84.5-.1-154.4.1-155.2.4M402 47v8H112V39h290zm-28 42.5c0 24.6-1.1 36.7-4.6 50.4-3 12.1-11.6 29.4-18.6 38.1-3 3.5-15 15.4-26.8 26.3-31.7 29.3-35.8 33.5-38.4 38.6-5.9 11.6-5 24.2 2.5 34.6 1.8 2.5 13.9 14.2 26.9 26 28.4 25.7 36.1 33.7 42.2 43.5 12.3 19.7 16.8 40.3 16.8 76.2V442H139.7l.6-23.8c.7-33.1 4.3-50.3 14.2-67.7 6.9-12.1 12.6-18.3 38.1-41.5 13.3-12.1 26-24 28.3-26.6 8.6-9.2 12.7-22.7 10.1-33.3-2.3-9.7-7.1-15.3-36.1-41.8-34.2-31.3-40.7-39.6-47.8-60.8-5-14.8-6.3-24.6-6.8-51.2-.3-13.3-.3-24.9 0-25.7.6-1.4 12.5-1.6 117.2-1.6H374zm28 374v7.5H112v-15h290z"/><path d="M327.4 154.6c-21.5 10.5-33.3 10.8-64.2 1.5-18.1-5.4-25.5-6.5-41.9-5.8-15.2.6-25.7 2.7-37.7 7.7-7.8 3.3-10.3 6-9.3 10.2.4 1.4 14 15.2 32.4 32.8 17.5 16.7 33 32.1 34.6 34.3 1.5 2.2 3.2 5.8 3.7 7.9.6 2.1 1.5 5.6 2.1 7.8 1.4 5.5 5.7 8.3 11.7 7.7 5.9-.6 8.4-3.3 12.2-13.1 1.7-4.6 4.4-10.2 5.8-12.4 1.5-2.2 12.2-12.9 23.7-23.9 26.7-25.4 38-37.2 43.3-45.2 4.6-6.9 5.3-10.8 2.4-13.4-3-2.7-7-1.9-18.8 3.9m-87.4 9.5c3.6.5 12.8 2.8 20.4 5 23.3 6.6 36.9 8.2 49.4 5.5 3.4-.7 6.1-1 6.1-.7-.1.3-5.2 5.3-11.3 11.1-34.8 32.8-41.2 39.4-44.2 45.7l-3 6.2-2.3-5c-2.6-5.9-5.8-9.2-38-40l-24.3-23.4 4.3-1.3c13.3-3.9 30.4-5.1 42.9-3.1M253 277c-1.1 1.1-2 3.1-2 4.5s.9 3.4 2 4.5c4 4 11 1.1 11-4.5 0-3.2-3.3-6.5-6.5-6.5-1.4 0-3.4.9-4.5 2m-.3 26.8c-3.4 3.8-.7 11.2 4.2 11.2 2.9 0 7.1-3.9 7.1-6.6 0-5.4-7.8-8.5-11.3-4.6m-12.2 25.6c-40.8 8-71.5 40.7-76.5 81.7-1.2 9.6-1.1 10.2.7 12.7l2 2.7 90.2.3 90.1.2 2.1-2.1c2-2 2.1-2.9 1.5-10.3-1.2-16.2-7.6-33.9-17-46.9-5.1-7.2-17-18.9-23.9-23.6-7.1-4.9-20.6-10.9-29.4-13.2-10.1-2.7-30-3.4-39.8-1.5m41.5 14.5c26.9 9.1 46.1 29.7 53.1 56.9 1 4.1 1.9 8.6 1.9 9.9v2.3h-80c-71.6 0-80-.2-80-1.6 0-4.9 3.8-17.2 8-25.9 8.1-16.6 19.4-28.3 35-36.4 14.4-7.4 22.2-9.1 39.5-8.7 11.5.3 14.1.7 22.5 3.5"/></svg>