<svg version="1.0" xmlns="http://www.w3.org/2000/svg" width="170.667" fill="#fff" height="170.667" viewBox="0 0 128 128"><path d="M15.2 3.1C7.2 5.4 1 16.2 2.4 25.2 4 35 11.6 41.5 21.5 41.5c10.6 0 18.6-6.4 20.1-16.1C43.8 10.3 30.2-1.2 15.2 3.1m11 3.9c11.3 3.2 15 17.6 6.7 25.9-11 11.1-30 .2-25.9-14.8 1.3-4.8 5.9-9.7 10.3-11 4.3-1.2 4.6-1.2 8.9-.1"/><path d="M14.7 14.7c-1.6 1.6-1.5 1.9 1 4.5l2.7 2.8-2.7 2.8c-2.5 2.6-2.6 2.9-1 4.5s1.9 1.5 4.5-1l2.8-2.7 2.8 2.7c2.6 2.5 2.9 2.6 4.5 1s1.5-1.9-1-4.5L25.6 22l2.7-2.8c2.5-2.6 2.6-2.9 1-4.5s-1.9-1.5-4.5 1L22 18.4l-2.8-2.7c-2.6-2.5-2.9-2.6-4.5-1M99.5 3.2C89.1 7 84.1 17 87.1 27.7c3.5 12.8 19.7 18.3 30.6 10.4 5.4-3.9 7.8-9.1 7.8-16.6 0-7.2-2.7-12.3-8.5-16.1-4.4-2.9-12.8-4-17.5-2.2M110.2 7c11.3 3.2 15 17.6 6.7 25.9-11 11.1-30 .2-25.9-14.8 1.3-4.8 5.9-9.7 10.3-11 4.3-1.2 4.6-1.2 8.9-.1"/><path d="M98.7 14.7c-1.6 1.6-1.5 1.9 1 4.5l2.7 2.8-2.7 2.8c-2.5 2.6-2.6 2.9-1 4.5s1.9 1.5 4.5-1l2.8-2.7 2.8 2.7c2.6 2.5 2.9 2.6 4.5 1s1.5-1.9-1-4.5l-2.7-2.8 2.7-2.8c2.5-2.6 2.6-2.9 1-4.5s-1.9-1.5-4.5 1l-2.8 2.7-2.8-2.7c-2.6-2.5-2.9-2.6-4.5-1M46 22c0 1.3.7 2 2 2s2-.7 2-2-.7-2-2-2-2 .7-2 2m8 0c0 1.9.7 2 14 2s14-.1 14-2-.7-2-14-2-14 .1-14 2m49.6 27.8c-.3 2.2-1.6 5.1-2.8 6.7-4.1 5.2-6.2 5.5-37.3 5.5-30 0-32.9.4-37.9 4.8-2.5 2.3-5.6 9-5.6 12.4 0 2.1.5 2.8 2 2.8s2-.7 2-2.8c0-3.7 3.3-8.8 7.2-11.2 3.1-1.9 5.1-2 32.8-2 26.5 0 29.9-.2 33.5-1.9 4.8-2.2 6.9-4.4 9-9.4 2.1-5.1 2-8.7-.4-8.7-1.4 0-2 1-2.5 3.8M94 79.3c-4.9 1.6-13.3 10.2-14.8 15.3-2.8 9.4-.8 16.9 6.3 23.9 7 7.1 14.5 9.1 23.9 6.3 5.5-1.6 13.8-9.9 15.4-15.4 2.6-8.9.9-16.3-5.5-23.4-6.5-7.2-15.8-9.7-25.3-6.7m13.3 3.8c4.3 1.1 10.1 5.9 12.2 9.8 6.1 11.8-1.2 26.1-14.6 28.6-9.9 1.8-20.4-6-22.4-16.6-1.5-8.2 4.7-18.5 13-21.4 4.9-1.7 6.9-1.8 11.8-.4"/><path d="M103.8 99.7c-6.6 6.6-6.8 6.7-8.7 4.9-1.9-1.7-5.1-1.6-5.1.2 0 .4 1.6 2.3 3.5 4.2l3.5 3.4 8.5-8.4c6.5-6.4 8.2-8.7 7.3-9.7-.6-.7-1.3-1.3-1.7-1.3-.3 0-3.6 3-7.3 6.7M15.2 87.1c-8 2.3-14.2 13.1-12.8 22.1 1.6 9.8 9.2 16.3 19.1 16.3 10.6 0 18.6-6.4 20.1-16.1 2.2-15.1-11.4-26.6-26.4-22.3m11 3.9c11.3 3.2 15 17.6 6.7 25.9-11 11.1-30 .2-25.9-14.8 1.3-4.8 5.9-9.7 10.3-11 4.3-1.2 4.6-1.2 8.9-.1"/><path d="M14.7 98.7c-1.6 1.6-1.5 1.9 1 4.5l2.7 2.8-2.7 2.8c-2.5 2.6-2.6 2.9-1 4.5s1.9 1.5 4.5-1l2.8-2.7 2.8 2.7c2.6 2.5 2.9 2.6 4.5 1s1.5-1.9-1-4.5l-2.7-2.8 2.7-2.8c2.5-2.6 2.6-2.9 1-4.5s-1.9-1.5-4.5 1l-2.8 2.7-2.8-2.7c-2.6-2.5-2.9-2.6-4.5-1m47 .7c-.3.8.4 2.1 1.6 3 2 1.4 1.5 1.5-7.5 1.5-9.1.1-9.8.2-9.8 2.1s.7 2 9.8 2.1c9 0 9.5.1 7.5 1.5-2.2 1.6-2.1 4.4.1 4.4 1.6-.1 10.6-6.8 10.6-8s-9-7.9-10.6-8c-.7 0-1.4.6-1.7 1.4"/></svg>